<svg width="16.000000" height="16.000000" viewBox="0 0 16 16" fill="none" xmlns="http://www.w3.org/2000/svg" xmlns:xlink="http://www.w3.org/1999/xlink">
	<desc>
			Created with Pixso.
	</desc>
	<defs/>
	<rect id="Icons/Favourites Filled (Heart Like)" width="16.000000" height="16.000000" fill="#FFFFFF" fill-opacity="0"/>
	<path id="Union" d="M11.2998 1.29878C10.7266 1.29878 10.1582 1.4118 9.62842 1.63138C9.09863 1.85092 8.61719 2.17284 8.21143 2.57848L8 2.79005L7.78857 2.57835C6.96924 1.75929 5.8584 1.29913 4.7002 1.29913C3.5415 1.29913 2.43066 1.75929 1.61182 2.57835C0.79248 3.39743 0.33252 4.50833 0.33252 5.66667C0.33252 6.82501 0.79248 7.9359 1.61182 8.75497L7.50488 14.6483C7.77832 14.9217 8.22168 14.9217 8.49512 14.6483L14.3882 8.75497C14.7939 8.34949 15.1157 7.86806 15.3354 7.3382C15.5547 6.80827 15.668 6.24028 15.668 5.66667C15.668 5.09305 15.5547 4.52505 15.3354 3.99515C15.1157 3.46532 14.7939 2.98393 14.3887 2.57848C13.9829 2.17278 13.5015 1.85095 12.9717 1.63138C12.4414 1.4118 11.8735 1.29878 11.2998 1.29878Z" clip-rule="evenodd" fill="#476DF4" fill-opacity="1.000000" fill-rule="evenodd"/>
</svg>
