<svg width="13.000000" height="15.000000" viewBox="0 0 13 15" fill="none" xmlns="http://www.w3.org/2000/svg" xmlns:xlink="http://www.w3.org/1999/xlink">
	<desc>
			Created with Pixso.
	</desc>
	<defs/>
	<path id="Vector (Stroke)" d="M1.46 -0.07C1.59 -0.24 1.79 -0.34 2 -0.34L10 -0.34C10.2 -0.34 10.4 -0.24 10.53 -0.07L12.53 2.59C12.61 2.71 12.66 2.85 12.66 2.99L12.66 12.33C12.66 12.86 12.45 13.37 12.08 13.74C11.7 14.12 11.19 14.33 10.66 14.33L1.33 14.33C0.8 14.33 0.29 14.12 -0.09 13.74C-0.46 13.37 -0.67 12.86 -0.67 12.33L-0.67 2.99C-0.67 2.85 -0.62 2.71 -0.54 2.59L1.46 -0.07ZM2.33 0.99L0.66 3.22L0.66 12.33C0.66 12.51 0.73 12.67 0.86 12.8C0.98 12.92 1.15 13 1.33 13L10.66 13C10.84 13 11.01 12.92 11.13 12.8C11.26 12.67 11.33 12.51 11.33 12.33L11.33 3.22L9.66 0.99L2.33 0.99Z" fill="#0F0F11" fill-opacity="1.000000" fill-rule="evenodd"/>
	<path id="Vector (Stroke)" d="M-0.67 3C-0.67 2.63 -0.37 2.33 6.1e-5 2.33L12 2.33C12.36 2.33 12.66 2.63 12.66 3C12.66 3.36 12.36 3.66 12 3.66L6.1e-5 3.66C-0.37 3.66 -0.67 3.36 -0.67 3Z" fill="#0F0F11" fill-opacity="1.000000" fill-rule="evenodd"/>
	<path id="Vector (Stroke)" d="M3.33 5C3.7 5 3.99 5.29 3.99 5.66C3.99 6.19 4.21 6.7 4.58 7.08C4.96 7.45 5.46 7.66 5.99 7.66C6.53 7.66 7.03 7.45 7.41 7.08C7.78 6.7 7.99 6.19 7.99 5.66C7.99 5.29 8.29 5 8.66 5C9.03 5 9.33 5.29 9.33 5.66C9.33 6.55 8.98 7.39 8.35 8.02C7.73 8.64 6.88 9 5.99 9C5.11 9 4.26 8.64 3.64 8.02C3.01 7.39 2.66 6.55 2.66 5.66C2.66 5.29 2.96 5 3.33 5Z" fill="#0F0F11" fill-opacity="1.000000" fill-rule="evenodd"/>
</svg>
